<svg width="34" height="34" viewBox="0 0 34 34" fill="none" xmlns="http://www.w3.org/2000/svg">
    <circle cx="16.5287" cy="17.1761" r="16.5287" fill="white"/>
    <path d="M24.7523 16.6891V14.7994C24.7523 13.1425 23.4091 11.7994 21.7523 11.7994H20.9631C20.7761 11.7994 20.6051 11.6937 20.5215 11.5264V11.5264C19.8523 10.1881 18.4846 9.34277 16.9883 9.34277C16.8478 9.34277 16.7057 9.34277 16.5636 9.34277C16.4215 9.34277 16.2794 9.34277 16.1389 9.34277C14.6427 9.34277 13.2749 10.1881 12.6057 11.5264V11.5264C12.5221 11.6937 12.3511 11.7994 12.1641 11.7994H11.3749C9.71809 11.7994 8.37494 13.1425 8.37494 14.7994V21.0094C8.37494 23.2185 10.1658 25.0094 12.3749 25.0094H20.7523C22.9614 25.0094 24.7523 23.2185 24.7523 21.0094V19.9535" stroke="#7496C2" stroke-width="1.5" stroke-linecap="round"/>
    <circle cx="16.5635" cy="17.8441" r="3.48279" stroke="#7496C2" stroke-width="1.5"/>
</svg>
