<svg width="24" height="25" viewBox="0 0 24 25" fill="none" xmlns="http://www.w3.org/2000/svg">
    <path d="M10 10.6074H14" stroke="#7496C2" stroke-width="1.5" stroke-linecap="round"/>
    <path d="M4 10.9555L4 18.3198C4 19.9767 5.34315 21.3198 7 21.3198H9M20 10.6074V15.4767M15 21.3198H17.0784C18.692 21.3198 20 20.0118 20 18.3983V18.3983" stroke="#7496C2" stroke-width="1.5" stroke-linecap="round"/>
    <path d="M15 21.3199V21.3199C14.5858 21.3199 14.25 20.9841 14.25 20.5699V15.7791C14.25 14.5364 13.2426 13.5291 12 13.5291V13.5291C10.7574 13.5291 9.75 14.5364 9.75 15.7791V20.5699C9.75 20.9841 9.41421 21.3199 9 21.3199V21.3199" stroke="#7496C2" stroke-width="1.5"/>
    <path d="M22.2072 12.757L13.5363 4.31284C12.745 3.5422 11.462 3.54221 10.6707 4.31284L1.99988 12.757" stroke="#7496C2" stroke-width="1.5" stroke-linecap="round"/>
</svg>
