<svg width="24" height="24" viewBox="0 0 24 24" fill="none" xmlns="http://www.w3.org/2000/svg">
    <path d="M20 9V5C20 3.89543 19.1046 3 18 3H5C3.89543 3 3 3.89543 3 5V14C3 15.1046 3.89543 16 5 16H10.5" stroke="#7496C2" stroke-width="1.5" stroke-linecap="round"/>
    <path d="M14 16L15.4293 17.4293C15.4683 17.4683 15.5317 17.4683 15.5707 17.4293L18 15" stroke="#7496C2" stroke-width="1.5" stroke-linecap="round"/>
    <path d="M6 11H9.5" stroke="#7496C2" stroke-width="1.5" stroke-linecap="round"/>
    <path d="M16 21C13.2386 21 11 18.7614 11 16C11 13.2386 13.2386 11 16 11" stroke="#7496C2" stroke-width="1.5"/>
    <path d="M16 21C18.7614 21 21 18.7614 21 16C21 13.2386 18.7614 11 16 11" stroke="#7496C2" stroke-width="1.5"/>
    <path d="M3 7H20" stroke="#7496C2" stroke-width="1.5" stroke-linecap="round"/>
</svg>
