<svg width="24" height="24" viewBox="0 0 24 24" fill="none" xmlns="http://www.w3.org/2000/svg">
    <circle cx="12" cy="6" r="3.25" stroke="#7496C2" stroke-width="1.5"/>
    <path d="M8.68142 20.5C9.68115 20.8154 10.8176 21.0014 12.0672 21C15.9621 20.9955 18.7121 19.1696 19.6443 17.303C20.1036 16.3834 20.1047 15.5118 19.7246 14.7945C19.3515 14.0905 18.4938 13.3153 16.7154 12.7676C15.0825 12.2647 13.4349 12 11.9505 12C10.4946 12 8.8812 12.2547 7.27805 12.7394C5.48499 13.2815 4.63248 14.0549 4.26617 14.7534C3.89205 15.4668 3.89848 16.3422 4.37373 17.2727C4.58716 17.6906 4.89067 18.1062 5.27637 18.5" stroke="#7496C2" stroke-width="1.5" stroke-linecap="round"/>
</svg>
