<svg width="24" height="24" viewBox="0 0 24 24" fill="none" xmlns="http://www.w3.org/2000/svg">
    <path d="M8.71361 18.0828L8.71359 18.0828L8.25559 18.5408C7.48341 19.313 6.23147 19.313 5.4593 18.5408C4.68713 17.7687 4.68713 16.5167 5.4593 15.7446L5.91743 15.2864C5.91743 15.2864 5.91744 15.2864 5.91745 15.2864C6.40058 14.8033 6.05835 13.9773 5.37518 13.9773H4.72727C3.63526 13.9773 2.75 13.092 2.75 12C2.75 10.908 3.63526 10.0227 4.72727 10.0227H5.37496C6.05817 10.0227 6.40033 9.1967 5.91723 8.71359C5.91722 8.71359 5.91722 8.71359 5.91722 8.71358L5.45926 8.25562C4.68708 7.48345 4.68708 6.23151 5.45926 5.45934C6.23143 4.68716 7.48337 4.68716 8.25554 5.45934L8.71359 5.91738L8.7136 5.91739C9.19668 6.40047 10.0227 6.05836 10.0227 5.37512V4.72727C10.0227 3.63525 10.908 2.75 12 2.75C13.092 2.75 13.9773 3.63526 13.9773 4.72727V5.37518C13.9773 6.05843 14.8033 6.40052 15.2864 5.91746L15.2864 5.91745L15.7445 5.45937C16.5167 4.6872 17.7686 4.68719 18.5408 5.45937C19.3129 6.23154 19.3129 7.48348 18.5408 8.25565L18.0828 8.71359L18.0828 8.71361C17.5998 9.19668 17.9418 10.0227 18.6251 10.0227H19.2727C20.3647 10.0227 21.25 10.908 21.25 12C21.25 13.092 20.3647 13.9773 19.2727 13.9773H18.6249C17.9417 13.9773 17.5995 14.8033 18.0826 15.2864L18.5407 15.7445C19.3129 16.5167 19.3129 17.7686 18.5407 18.5408C17.7686 19.313 16.5166 19.313 15.7444 18.5408L15.2864 18.0828L15.2864 18.0828C14.8033 17.5997 13.9773 17.9418 13.9773 18.625V19.2727C13.9773 20.3647 13.092 21.25 12 21.25C10.908 21.25 10.0227 20.3647 10.0227 19.2727V18.6251C10.0227 17.9418 9.19668 17.5998 8.71361 18.0828Z" stroke="#7496C2" stroke-width="1.5"/>
    <path d="M12.7765 14.8978C11.1761 15.3266 9.53105 14.3769 9.10223 12.7765C8.6734 11.1761 9.62315 9.53107 11.2235 9.10224C12.8239 8.67341 14.469 9.62316 14.8978 11.2236C15.0242 11.6954 15.0308 12.1711 14.9362 12.6184" stroke="#7496C2" stroke-width="1.5" stroke-linecap="round"/>
</svg>
